<svg width="1200" height="800" viewBox="0 0 1200 800" fill="none" xmlns="http://www.w3.org/2000/svg">
  <defs>
    <linearGradient id="bg" x1="0" y1="0" x2="1" y2="1">
      <stop stop-color="#0E1119"/>
      <stop offset="1" stop-color="#141A25"/>
    </linearGradient>
    <linearGradient id="acc" x1="0" y1="0" x2="1" y2="1">
      <stop stop-color="#E0B84E" stop-opacity="0.9"/>
      <stop offset="1" stop-color="#F1D07A" stop-opacity="0.9"/>
    </linearGradient>
    <radialGradient id="soft" cx="0" cy="0" r="1" gradientUnits="userSpaceOnUse" gradientTransform="translate(760 250) rotate(90) scale(320 420)">
      <stop stop-color="#1F8A7A" stop-opacity="0.16"/>
      <stop offset="1" stop-color="#000000" stop-opacity="0"/>
    </radialGradient>
  </defs>
  <rect width="1200" height="800" rx="42" fill="url(#bg)"/>
  <path d="M880 210C880 372 742 504 572 504C402 504 264 372 264 210C264 48 402 -2 572 -2C742 -2 880 48 880 210Z" fill="url(#soft)" opacity="0.9"/>

  <g opacity="0.92" fill="rgba(255,255,255,0.08)" stroke="rgba(255,255,255,0.12)" stroke-width="2">
    <rect x="210" y="250" width="520" height="260" rx="30"/>
    <rect x="470" y="340" width="520" height="260" rx="30"/>
  </g>

  <g stroke-linecap="round" opacity="0.95">
    <path d="M300 360H520" stroke="rgba(255,255,255,0.28)" stroke-width="10"/>
    <path d="M300 405H600" stroke="rgba(255,255,255,0.18)" stroke-width="10"/>
    <path d="M560 450H870" stroke="rgba(255,255,255,0.28)" stroke-width="10"/>
    <path d="M560 495H780" stroke="rgba(255,255,255,0.18)" stroke-width="10"/>
  </g>

  <g opacity="0.95" stroke="url(#acc)" stroke-width="10" stroke-linecap="round">
    <path d="M415 560C440 605 495 635 560 635C625 635 680 605 705 560"/>
  </g>

  <text x="120" y="720" fill="rgba(255,255,255,0.62)" font-family="Inter, system-ui, -apple-system, Segoe UI, Roboto, Arial, sans-serif" font-size="26">
    Coaching (spazio di ascolto)
  </text>
</svg>
